<svg xmlns="http://www.w3.org/2000/svg" width="1280" height="380" viewBox="0 0 1280 380" role="img" aria-labelledby="title desc">
  <title id="title">Multi-page Catalog Scraper</title>
  <desc id="desc">A dark visual banner showing a catalog extraction pipeline from pages to structured outputs.</desc>
  <defs>
    <linearGradient id="bg" x1="0" y1="0" x2="1" y2="1">
      <stop offset="0" stop-color="#0d1117"/>
      <stop offset="0.55" stop-color="#141b24"/>
      <stop offset="1" stop-color="#10151c"/>
    </linearGradient>
    <linearGradient id="accent" x1="0" y1="0" x2="1" y2="0">
      <stop offset="0" stop-color="#58a6ff"/>
      <stop offset="0.55" stop-color="#3fb950"/>
      <stop offset="1" stop-color="#f2b36a"/>
    </linearGradient>
    <pattern id="grid" width="40" height="40" patternUnits="userSpaceOnUse">
      <path d="M40 0H0V40" fill="none" stroke="#30363d" stroke-width="1" opacity="0.28"/>
    </pattern>
    <filter id="shadow" x="-20%" y="-20%" width="140%" height="140%">
      <feDropShadow dx="0" dy="12" stdDeviation="18" flood-color="#000000" flood-opacity="0.35"/>
    </filter>
  </defs>

  <rect width="1280" height="380" rx="24" fill="url(#bg)"/>
  <rect width="1280" height="380" rx="24" fill="url(#grid)"/>
  <rect x="0" y="0" width="1280" height="6" rx="3" fill="url(#accent)"/>

  <g transform="translate(70 68)">
    <text x="0" y="0" fill="#8b949e" font-family="Segoe UI, Inter, Arial, sans-serif" font-size="18" font-weight="700" letter-spacing="3">PYTHON DATA EXTRACTION</text>
    <text x="0" y="58" fill="#f0f6fc" font-family="Segoe UI, Inter, Arial, sans-serif" font-size="48" font-weight="750">Multi-page Catalog Scraper</text>
    <text x="0" y="98" fill="#b1bac4" font-family="Segoe UI, Inter, Arial, sans-serif" font-size="21">Reliable page-by-page extraction into CSV, JSON, and Markdown reports.</text>

    <g transform="translate(0 145)" font-family="Segoe UI, Inter, Arial, sans-serif">
      <rect width="158" height="42" rx="21" fill="#161b22" stroke="#30363d"/>
      <text x="79" y="27" text-anchor="middle" fill="#c9d1d9" font-size="15" font-weight="650">Requests</text>

      <rect x="170" width="188" height="42" rx="21" fill="#161b22" stroke="#30363d"/>
      <text x="264" y="27" text-anchor="middle" fill="#c9d1d9" font-size="15" font-weight="650">Beautiful Soup</text>

      <rect x="370" width="142" height="42" rx="21" fill="#161b22" stroke="#30363d"/>
      <text x="441" y="27" text-anchor="middle" fill="#c9d1d9" font-size="15" font-weight="650">CLI</text>
    </g>
  </g>

  <g transform="translate(760 68)" filter="url(#shadow)" font-family="Segoe UI, Inter, Arial, sans-serif">
    <rect width="450" height="244" rx="22" fill="#161b22" stroke="#30363d"/>

    <g transform="translate(34 34)">
      <rect width="104" height="64" rx="14" fill="#0d2037" stroke="#58a6ff" stroke-opacity="0.75"/>
      <text x="52" y="29" text-anchor="middle" fill="#79c0ff" font-size="14" font-weight="700">PAGES</text>
      <text x="52" y="49" text-anchor="middle" fill="#c9d1d9" font-size="12">01 · 02 · 03</text>

      <path d="M116 32H160" stroke="#6e7681" stroke-width="2.5"/>
      <path d="M153 25L161 32L153 39" fill="none" stroke="#6e7681" stroke-width="2.5"/>

      <rect x="172" width="104" height="64" rx="14" fill="#102a1b" stroke="#3fb950" stroke-opacity="0.75"/>
      <text x="224" y="29" text-anchor="middle" fill="#56d364" font-size="14" font-weight="700">PARSE</text>
      <text x="224" y="49" text-anchor="middle" fill="#c9d1d9" font-size="12">5 fields</text>

      <path d="M288 32H312" stroke="#6e7681" stroke-width="2.5"/>
      <path d="M305 25L313 32L305 39" fill="none" stroke="#6e7681" stroke-width="2.5"/>

      <rect x="324" width="72" height="64" rx="14" fill="#332313" stroke="#f2b36a" stroke-opacity="0.8"/>
      <text x="360" y="29" text-anchor="middle" fill="#f2b36a" font-size="14" font-weight="700">SAVE</text>
      <text x="360" y="49" text-anchor="middle" fill="#c9d1d9" font-size="11">3 formats</text>
    </g>

    <g transform="translate(34 132)">
      <rect width="382" height="78" rx="14" fill="#0d1117" stroke="#30363d"/>
      <circle cx="25" cy="23" r="5" fill="#3fb950"/>
      <text x="42" y="28" fill="#8b949e" font-size="13">Pages scraped</text>
      <text x="350" y="28" text-anchor="end" fill="#f0f6fc" font-size="15" font-weight="700">3</text>
      <circle cx="25" cy="53" r="5" fill="#58a6ff"/>
      <text x="42" y="58" fill="#8b949e" font-size="13">Records exported</text>
      <text x="350" y="58" text-anchor="end" fill="#f0f6fc" font-size="15" font-weight="700">60</text>
    </g>
  </g>
</svg>
